<?xml version="1.0" encoding="UTF-8"?>
<svg id="Layer_1" data-name="Layer 1" xmlns="http://www.w3.org/2000/svg" version="1.1" viewBox="0 0 350 87.5">
  <defs>
    <style>
      .cls-1 {
        fill-rule: evenodd;
      }

      .cls-1, .cls-2, .cls-3, .cls-4 {
        stroke-width: 0px;
      }

      .cls-1, .cls-3 {
        fill: #d6001c;
      }

      .cls-2 {
        fill: #000;
      }

      .cls-4 {
        fill: #fff;
      }
    </style>
  </defs>
  <g id="Layer_1-2" data-name="Layer 1">
    <g>
      <g>
        <path class="cls-1" d="M84.6,60.9c-5.9,9.9-16.8,16.7-29.1,16.7s-17.4-3.7-23.5-9.6h9.5s27.3-48,27.4-48.2.1-.3-.1-.3h-11.2c-.2,0-.2.1-.3.1-.1.1-15.4,26.7-15.4,26.7h-19.9c-.1-.9-.1-1.6-.1-2.5,0-18.6,15.2-33.8,33.8-33.8s18.1,3.9,24.3,10.4c-2.6,4.5-14.6,24.9-16.2,27.8-1-2.2-5.2-1.7-7.4-1.7-1,1.6-5.5,10.1-5.5,10.1h4.8c2.2,0,2.4,2.3,1.5,3.7-.9,1.4-4.5,7.7-4.5,7.7h11.4s14.1-24.6,22.1-38.6c1.1,2.3,2,4.8,2.5,7.3,2.7-1.9,6-2.9,9.6-2.9h0C93.5,14.4,76.2,0,55.5,0S11.7,19.6,11.7,43.8s0,1.7.1,2.5h-5.8c-.3,0-.4.2-.7.4-.1.2-5.1,9.2-5.3,9.4,0,.2,0,.3.2.3h13.3c5.5,18,22.1,31.1,42,31.1s29.5-8.3,37.3-20.8c-3.3-1-6.1-3.1-8.2-5.8ZM24.1,56.5h11.7l-5.7,9.7c-2.4-2.8-4.5-6.1-6-9.7Z"/>
        <path class="cls-4" d="M92.3,55.7c3.1,0,6.5-1.5,9.6-4.3,0,0-.4,2.2-.5,2.8s.3,1.2,1,1.2h.2c.7,0,1.2-.5,1.3-1.2l1.1-6.1c.1-.7-.3-1.2-1-1.2h-6.1c-.7,0-1.3.3-1.4,1v.3c-.1.7.3,1.1,1,1.1h3.2-.1c-2.2,2.2-4.9,3.3-7.1,3.3s-4.7-1.4-4.7-4.6c0-6.5,6.1-10.4,9.4-10.4-5.1,0-9.6,3.1-11.7,7.5-.4,1.3-.8,2.5-.8,3.7,0,5.9,4.7,6.8,6.6,6.8Z"/>
        <path class="cls-3" d="M98,37.8c-3.3,0-9.4,3.8-9.4,10.4s2.5,4.6,4.7,4.6,4.9-1.1,7.1-3.2h.1c0-.1-3.2-.1-3.2-.1-.7,0-1.1-.4-1-1.1v-.3c.1-.7.8-1,1.4-1h6.1c.7,0,1.1.5,1,1.2l-1.1,6.1c-.1.7-.5,1.2-1.3,1.2h-.2c-.7,0-1.1-.5-1-1.2s.5-2.8.5-2.8c-2.9,2.7-6.5,4.3-9.6,4.3s-6.6-.9-6.6-6.6.2-2.4.8-3.7h0c-.1.3-.2.7-.3.9-.1.2-.1.3-.2.5s-.1.5-.2.8c0,.2-.1.3-.1.5-.1.3-.1.5-.1.9s0,.3-.1.4c0,.4-.1.9-.1,1.4s0,.9.1,1.3c.4,3.9,2.5,7.3,5.6,9.4,1,.7,2.2,1.2,3.4,1.6,1.2.3,2.5.5,3.8.5,2.2,0,4.3-.5,6.1-1.5,2.2-1.2,4-2.9,5.1-5.1,1-1.9,1.5-3.9,1.5-6.1.1-7.4-5.7-13.2-12.8-13.2Z"/>
      </g>
      <g>
        <g>
          <path class="cls-2" d="M117.3,42.7h.7c1.6,0,2.4-.8,2.7-2.6l3.5-19.7,3.4,13.2c.3,1.3.5,2.2,3.1,2.2s2.6-.8,3.4-2l8.3-13.6-3.5,19.7c-.3,1.9.5,2.8,2.1,2.8h.7c1.6,0,2.4-.9,2.7-2.6l4.4-24.4c.3-2-.5-3.3-2.6-3.3h-1.7c-1.7,0-2.4.5-3.6,2.4l-9.4,15.2-3.9-15c-.4-1.7-1-2.5-2.9-2.5h-1.5c-1.9,0-3.2,1.1-3.5,3.2l-4.4,24.4c-.1,1.7.7,2.7,2.3,2.7Z"/>
          <path class="cls-2" d="M158.9,42.7c8,0,12.4-6.3,12.2-13.3-.2-5.9-4.3-10.2-11-10.2s-12.4,6.3-12.2,13.2c.2,6.3,4.6,10.4,11,10.4ZM160.1,23.4c3.4,0,6,2.6,6.1,6.2.1,4.9-2.9,8.7-7.3,8.7s-5.9-2.6-6.1-6.2c-.1-4.6,2.9-8.7,7.3-8.7Z"/>
          <path class="cls-2" d="M174.1,42.7h.7c1.6,0,2.3-.7,2.6-2.6l2.1-11.9c1.5-2.6,3.2-3.9,5.8-3.9s4.1,1.5,4.1,4.1-.1,1.5-.2,2.5l-1.6,9.2c-.3,2.1.9,2.6,2.3,2.6h.7c1.6,0,2.3-.7,2.6-2.6l1.7-10.1c.2-1.1.3-2.2.3-3.1-.1-4.4-2.9-7.3-7.7-7.3s-5.8,1.6-7.4,4.3c.1-3.1-1.5-3.9-3.3-3.9s-1.4.2-1.5.3l-3.5,19.8c-.2,2,1,2.6,2.4,2.6Z"/>
          <path class="cls-2" d="M272.7,42.7h.7c1.4,0,2.1-.7,2.4-2.6l1.2-6.6c.9-5.1,2.8-8.8,5.9-8.8s2.4.7,3.2,1.3c.1.1,2.4-.8,2.3-3.6-.1-1.7-1.7-2.8-3.9-2.8s-4.6,1.5-6,4.3c.2-3.1-1.5-3.9-3.2-3.9s-1.4.2-1.5.3l-3.5,19.8c-.3,2.1,1,2.7,2.5,2.7Z"/>
          <path class="cls-2" d="M296,42.7c3.5,0,6.1-1.4,7.8-4.4-.2,2.9.3,3.9,2.5,3.9s2.5-.7,2.7-2.8c.2-3.9,1.6-10.4,3.2-19.3,0-.1-.9-.7-2-.7-2.2,0-3.4,1.1-4,3.8-1.4-2.6-4.3-4.1-7.5-4.1-7,0-11.9,6.2-11.9,13.4-.1,5.8,3.5,10.1,9.2,10.1ZM299.4,23.3c3.9,0,5.7,2.9,5.7,6.1s-2.7,8.9-7.7,8.9-5.5-2.2-5.5-6c0-4.6,2.6-9,7.5-9Z"/>
          <path class="cls-2" d="M314.6,42.7h.7c1.4,0,2.3-.5,2.6-2.6l2.2-12.3c1.6-2.4,3.1-3.5,5.5-3.5s3.7,1.7,3.7,4.4,0,.9-.1,1.3l-1.7,10.1c-.3,2.1.9,2.6,2.3,2.6h.5c1.4,0,2.3-.7,2.7-2.6l2.2-12.3c1.6-2.4,3.2-3.5,5.5-3.5s3.8,1.3,3.8,4.1-.1,1.5-.3,2.5l-1.6,9.2c-.3,2.1.8,2.6,2.3,2.6h.7c1.6,0,2.3-.7,2.6-2.6l1.7-10.1c.2-1.1.3-2.2.3-3.1,0-4.5-3.1-7.3-7.3-7.3s-6.4,2-8.2,4.9c-.9-3.1-3.5-4.9-6.9-4.9s-5.5,1.4-7.2,4c.1-2.8-1.5-3.6-3.3-3.6s-1.4.2-1.5.3l-3.5,19.8c-.3,1.9.9,2.5,2.4,2.5Z"/>
          <path class="cls-2" d="M207.5,42.7c6.6,0,10.5-2.9,10.5-5.3s-1.1-2.2-2.4-2.3c-1.7,2.3-4.1,3.4-7.5,3.4s-6.4-1.1-6.6-6.3h15.2c1.6,0,2.8-1,2.8-2.9,0-3.1-.7-5.1-2.1-6.9-1.5-2-4.4-3.2-7.5-3.2-9.9,0-13.4,7.3-13.4,13.6.1,5.9,4.5,9.9,11.1,9.9ZM209.6,23.1c1.7,0,3.2.5,4,1.5.8.9,1.1,2.2,1,3.7h-12.6c1.2-3.2,4-5.2,7.6-5.2Z"/>
          <path class="cls-2" d="M221.8,51.3h1.1c2.1,0,2.7-1.2,3.7-2.9l14.2-23.9c-.4,1.6-.7,3.5-.5,5.2.2,8.1,5.7,12.9,13.6,12.9s6.8-1.4,8.4-3.6c-.1,2.3,1.1,3.3,2.8,3.3s1.6-.3,1.6-.4l2.3-12.9c.3-2-.4-2.9-2.3-2.9h-9c-1.1,0-1.6.2-2,.5-.5.5-.8,1.9-.8,2.5,0,1,.9,1.5,2.3,1.5h6.4c-.9,4.5-3.7,7.6-8.6,7.6s-8.6-3.3-8.8-8.8c-.2-7,4.4-12.8,11-12.8s6.9,2.1,8.1,4.8c.1.2,3.7.2,3.6-2.8,0-1.1-.7-2.4-1.9-3.5-1.9-1.9-5.5-3.5-10.1-3.5-6.6,0-11.8,3.6-14.5,8.9h0c-.5-.7-1.4-1.1-2.3-1.1-1.5,0-2.4.4-3.8,2.9l-7,12.3-2.6-12.3c-.5-2.3-1.3-2.9-2.8-2.9s-3.2,1.2-3.1,1.5l5,19.8-5.2,8.5c-.8.8-.9,2,1.2,2Z"/>
        </g>
        <g>
          <polygon class="cls-2" points="133.1 66.3 117.2 66.3 117.2 58.9 115.1 58.9 115.1 75.9 117.2 75.9 117.2 67.9 133.1 67.9 133.1 75.9 135.2 75.9 135.2 58.9 133.1 58.9 133.1 66.3"/>
          <path class="cls-2" d="M147,58.9l-10,17h2.4l2.2-3.8h13.6l2.3,3.8h2.4l-10.1-17h-2.7ZM142.7,70.3l5.8-10,5.9,10h-11.7Z"/>
          <path class="cls-2" d="M172,58.9l-10,17h2.4l2.2-3.8h13.6l2.3,3.8h2.4l-10-17h-2.8ZM167.6,70.3l5.8-10,5.9,10h-11.7Z"/>
          <path class="cls-2" d="M201.2,66.6c-1.1-.1-2-.2-2.5-.2h-7.7c-1.1,0-2-.2-2.5-.5s-.9-1.1-.9-2.2.1-1.1.2-1.5c.1-.4.5-.8,1.1-1s1.4-.4,2.6-.5c1.2-.1,2.4-.1,3.5-.1h.8c1.5,0,2.7.1,3.6.2,1,.1,1.6.2,2,.4s.7.4.8.9c.2.4.2,1,.2,1.9h2.1c0-1.5-.3-2.7-1-3.5s-1.6-1.2-2.8-1.3c-1.2-.1-2.2-.2-2.7-.2h-2.7c-1.5,0-2.8,0-4,.1-1.2.1-2.3.3-3.2.7-.9.3-1.5.9-1.9,1.6s-.5,1.7-.5,2.9.4,2.5,1.3,3.2c.9.7,2.1.9,3.7.9h4.6c0,.1,3.9.1,3.9.1,1.3,0,2.3.2,2.9.5.5.3.9,1.1.9,2.4s-.2,1.6-.7,2.1c-.4.4-1.3.8-2.5.9-1.2.1-2.7.2-4.5.2s-2.2,0-3.3-.1-2.1-.2-2.7-.4c-.7-.2-1.1-.5-1.2-1s-.2-1.1-.2-2.1v-.3h-2.1c0,1.9.3,3.2.9,3.9s1.5,1.2,2.8,1.4c1.3.2,2.3.3,2.9.3h4.1c1.3,0,2.5,0,3.6-.1s2.1-.3,2.8-.7c.8-.3,1.3-.9,1.6-1.5s.4-1.5.4-2.6-.3-2.7-1-3.4c-.9-.9-1.7-1.2-2.8-1.3Z"/>
          <polygon class="cls-2" points="218.1 75.9 220.2 75.9 220.2 68 233.7 68 233.7 66.3 220.2 66.3 220.2 60.6 234.4 60.6 234.4 58.9 218.1 58.9 218.1 75.9"/>
          <polygon class="cls-2" points="258 60.6 266.6 60.6 266.6 75.9 268.7 75.9 268.7 60.6 277.3 60.6 277.3 58.9 258 58.9 258 60.6"/>
          <polygon class="cls-2" points="281.2 67.9 295.5 67.9 295.5 66.3 281.2 66.3 281.2 60.6 296 60.6 296 58.9 279.1 58.9 279.1 75.9 296.3 75.9 296.3 74.1 281.2 74.1 281.2 67.9"/>
          <path class="cls-2" d="M308.1,58.9l-10,17h2.4l2.2-3.8h13.6l2.3,3.8h2.4l-10-17h-2.8ZM303.8,70.3l5.8-10,5.9,10h-11.7Z"/>
          <polygon class="cls-2" points="336.5 73.5 326.3 58.9 323 58.9 323 75.9 325 75.9 325 60.6 335.6 75.9 337.4 75.9 347.9 60.6 347.9 75.9 350 75.9 350 58.9 346.7 58.9 336.5 73.5"/>
          <polygon class="cls-2" points="242.6 58.9 242.6 58.9 237.9 62.2 239 64 242.6 61.3 242.6 75.9 244.7 75.9 244.7 58.9 242.6 58.9"/>
          <path class="cls-2" d="M248.4,59.3c-.1-.1-.2-.1-.3-.2-.1,0-.2-.1-.4-.1s-.3,0-.4.1c-.1,0-.2.1-.3.2-.1.1-.2.2-.2.3-.1.1-.1.2-.1.4s0,.3.1.4c.1.1.1.2.2.3.1.1.2.2.3.2s.2.1.4.1.3,0,.4-.1c.1,0,.2-.1.3-.2.1-.1.2-.2.2-.3.1-.1.1-.2.1-.4s0-.3-.1-.4c-.1-.1-.1-.2-.2-.3ZM248.4,60.4c0,.1-.1.2-.2.3-.1.1-.2.1-.2.2-.1,0-.2.1-.3.1s-.2,0-.3-.1c-.1,0-.2-.1-.2-.2-.1-.1-.1-.2-.2-.3,0-.1-.1-.2-.1-.3s0-.2.1-.3c0-.1.1-.2.2-.3.1-.1.2-.1.2-.2.1,0,.2-.1.3-.1s.2,0,.3.1c.1,0,.2.1.2.2.1.1.1.2.2.3,0,.1.1.2.1.3s0,.2-.1.3Z"/>
          <path class="cls-2" d="M248.1,60c.1,0,.1-.1.1-.2s0-.2-.1-.2c-.1-.1-.2-.1-.3-.1h-.4v1.2h.2v-.5h.2l.3.5h.2l-.3-.5c-.1,0,0,0,.1-.1ZM247.6,60h-.2v-.3h.5v.2h0q0,.1-.1.2h-.1c0-.1-.1-.1-.1-.1Z"/>
        </g>
        <g>
          <polygon class="cls-3" points="228.4 49.9 227.5 51.3 349.2 51.3 350 49.9 228.4 49.9"/>
          <polygon class="cls-3" points="115.1 51.3 217 51.3 217.8 49.9 116 49.9 115.1 51.3"/>
        </g>
      </g>
    </g>
  </g>
</svg>